<svg width="20" height="20" viewBox="0 0 20 20" fill="none" xmlns="http://www.w3.org/2000/svg">
<path fill-rule="evenodd" clip-rule="evenodd" d="M14.1743 7.15394H19.9771V16.1364C19.9771 16.8373 19.8012 17.4849 19.4495 18.0791C19.0979 18.6734 18.6239 19.1419 18.0275 19.4848C17.4312 19.8276 16.7813 19.999 16.078 19.999H3.92202C3.21865 20.0143 2.56881 19.8467 1.97248 19.4962C1.37614 19.1458 0.89832 18.6734 0.538991 18.0791C0.179662 17.4849 0 16.8373 0 16.1364V7.1768H5.80275C4.82415 8.65483 4.61009 10.1938 5.16055 11.7937C5.54282 12.8756 6.22324 13.7289 7.20183 14.3536C7.84404 14.7803 8.53593 15.0431 9.27752 15.1421C10.0191 15.2412 10.7492 15.184 11.4679 14.9707C12.1865 14.7574 12.8287 14.3993 13.3945 13.8965C13.9602 13.3936 14.3884 12.7842 14.6789 12.068C15 11.2909 15.13 10.4986 15.0688 9.69097C14.9924 8.8072 14.6942 7.96153 14.1743 7.15394ZM2.47706 4.93691V0.617113C2.47706 0.449502 2.49235 0.34665 2.52294 0.308557C2.55352 0.270463 2.66055 0.220942 2.84404 0.159992L3.05046 0.11428V4.93691H3.87615V0.0228561H4.40367V4.93691H5.22936V0H16.078C16.7661 0 17.4044 0.171419 17.9931 0.514261C18.5818 0.857104 19.0558 1.31803 19.4151 1.89705C19.7745 2.47608 19.9618 3.1008 19.9771 3.77125C19.9924 4.15219 20 4.6093 20 5.14261C19.9847 6.27018 19.9771 6.73492 19.9771 6.53683H13.8303C13.6927 6.53683 13.5856 6.49112 13.5092 6.3997C12.8364 5.7902 12.0795 5.37879 11.2385 5.16547C10.3975 4.95214 9.55658 4.95595 8.7156 5.1769C7.87461 5.39784 7.11774 5.81305 6.44495 6.42255C6.3685 6.49874 6.29205 6.53683 6.2156 6.53683H0.137615L0.0229358 6.51398V5.64545C0.00764518 5.82829 0 5.47784 0 4.59407C0 4.18266 0.0152904 3.8322 0.0458716 3.54269C0.122325 2.43035 0.634552 1.5085 1.58257 0.777106L1.67431 0.75425V4.93691H2.47706ZM18.1651 4.43407V2.30846C18.1651 2.11037 18.1078 1.95419 17.9931 1.83991C17.8784 1.72563 17.7294 1.66849 17.5459 1.66849C16.8425 1.65325 16.1315 1.65325 15.4128 1.66849C15.2141 1.66849 15.0612 1.72944 14.9541 1.85134C14.8471 1.97324 14.7936 2.13323 14.7936 2.33132V4.43407C14.7936 4.63216 14.8509 4.78834 14.9656 4.90262C15.0803 5.0169 15.2294 5.07404 15.4128 5.07404H17.5229C17.7217 5.07404 17.8784 5.0169 17.9931 4.90262C18.1078 4.78834 18.1651 4.63216 18.1651 4.43407ZM10 14.0108C9.28134 14.0108 8.61621 13.8393 8.00459 13.4965C7.39296 13.1537 6.91132 12.6813 6.55963 12.0794C6.20795 11.4775 6.03211 10.8223 6.03211 10.1138C6.03211 9.40526 6.20795 8.75006 6.55963 8.14818C6.91132 7.5463 7.39296 7.06633 8.00459 6.70825C8.61621 6.35017 9.27752 6.17113 9.98853 6.17113C10.6995 6.17113 11.357 6.35017 11.961 6.70825C12.565 7.06633 13.0428 7.5463 13.3945 8.14818C13.7462 8.75006 13.922 9.40526 13.922 10.1138C13.922 10.8223 13.7462 11.4775 13.3945 12.0794C13.0428 12.6813 12.565 13.1537 11.961 13.4965C11.357 13.8393 10.7034 14.0108 10 14.0108ZM12.8899 10.1024C12.8899 9.5843 12.7599 9.10052 12.5 8.65102C12.2401 8.20151 11.8884 7.84725 11.445 7.58821C11.0015 7.32917 10.5161 7.19966 9.98853 7.19966C9.46101 7.19966 8.97554 7.32917 8.53211 7.58821C8.08868 7.84725 7.737 8.1977 7.47706 8.63959C7.21712 9.08147 7.08716 9.56526 7.08716 10.0909C7.08716 10.6166 7.21712 11.1004 7.47706 11.5423C7.737 11.9842 8.08868 12.3385 8.53211 12.6051C8.97554 12.8718 9.46101 13.0051 9.98853 13.0051C10.5161 13.0051 11.0015 12.8756 11.445 12.6165C11.8884 12.3575 12.2401 12.007 12.5 11.5652C12.7599 11.1233 12.8899 10.6357 12.8899 10.1024Z" fill="#233488"/>
</svg>
