<svg width="20" height="20" viewBox="0 0 20 20" fill="none" xmlns="http://www.w3.org/2000/svg">
<path fill-rule="evenodd" clip-rule="evenodd" d="M10 0V0.0228571C11.8133 0.0228571 13.4971 0.472376 15.0514 1.37143C16.5599 2.25524 17.7561 3.45142 18.6399 4.96C19.5542 6.51429 20.0075 8.19809 19.9999 10.0114C19.9923 11.8248 19.539 13.5086 18.6399 15.0629C17.7561 16.5714 16.5599 17.7676 15.0514 18.6514C13.4971 19.5505 11.8133 20 10 20C8.18668 20 6.5029 19.5505 4.94862 18.6514C3.44005 17.7676 2.24389 16.5714 1.36008 15.0629C0.461038 13.5086 0.00771347 11.8248 9.4452e-05 10.0114C-0.00752456 8.19809 0.4458 6.51429 1.36008 4.96C2.24389 3.45142 3.44005 2.25524 4.94862 1.37143C6.5029 0.472376 8.18668 0.0152382 10 0ZM13.0857 14.7657L14.8685 5.76C14.8685 5.57714 14.8 5.47048 14.6628 5.44C14.5561 5.40952 14.419 5.41714 14.2514 5.46286L14.0457 5.53143L3.8972 9.50857C3.80577 9.55429 3.72577 9.61143 3.6572 9.68C3.58863 9.74857 3.56197 9.82857 3.5772 9.92C3.59244 10.0419 3.66863 10.1486 3.80577 10.24L4.01149 10.3543L6.52575 11.2L12.5828 7.36L12.7428 7.29143C12.8647 7.24571 12.9257 7.26857 12.9257 7.36L12.7885 7.56571L8.0343 11.8629V11.9086L9.58858 13.1429L12.1486 15.0857C12.3466 15.1771 12.5295 15.1924 12.6971 15.1314C12.8038 15.101 12.9028 15.0324 12.9943 14.9257C13.0247 14.8648 13.0552 14.8114 13.0857 14.7657Z" fill="#233488"/>
</svg>
