<svg width="25" height="20" viewBox="0 0 25 20" fill="none" xmlns="http://www.w3.org/2000/svg">
<path fill-rule="evenodd" clip-rule="evenodd" d="M25 2.36287C24.296 3.39429 23.4399 4.27566 22.4315 5.00703V5.65401C22.4315 7.34178 22.1176 9.02953 21.4897 10.7173C20.8238 12.4426 19.8916 13.9803 18.6929 15.3305C17.3992 16.7745 15.8771 17.8997 14.1267 18.706C12.2051 19.5687 10.1218 20 7.87671 20C6.44976 20 5.06089 19.8031 3.71005 19.4093C2.39725 19.0342 1.16058 18.481 0 17.7496C0.399545 17.7872 0.808598 17.8059 1.22717 17.8059C2.40678 17.8059 3.53881 17.6184 4.62329 17.2433C5.70777 16.8683 6.6971 16.3432 7.59132 15.6681C6.48782 15.6306 5.49848 15.2883 4.62329 14.6413C3.74809 13.9944 3.14878 13.1646 2.82534 12.1519C3.12976 12.2082 3.44368 12.2363 3.76712 12.2363C4.22375 12.2363 4.67085 12.18 5.10845 12.0675C4.34741 11.9175 3.65297 11.6034 3.02511 11.1252C2.39726 10.647 1.90735 10.0563 1.55537 9.35302C1.20338 8.64979 1.01788 7.90436 0.998858 7.11674V7.03235C1.72185 7.44492 2.5019 7.66057 3.33904 7.67933C2.63508 7.2105 2.07858 6.60572 1.66952 5.86498C1.26046 5.12423 1.05594 4.32255 1.05594 3.45992C1.05594 2.55977 1.28424 1.7159 1.74087 0.92827C3.03463 2.48477 4.58523 3.72245 6.39269 4.64135C8.23821 5.579 10.2074 6.10408 12.3002 6.2166C12.2241 5.84154 12.1861 5.4571 12.1861 5.06329C12.1861 4.14439 12.4144 3.30052 12.871 2.53165C13.3276 1.76277 13.9507 1.14862 14.7403 0.68917C15.5299 0.229721 16.3813 0 17.2945 0C18.0175 0 18.7024 0.140646 19.3493 0.421941C19.9962 0.703236 20.5575 1.09704 21.0331 1.60338C22.1937 1.37834 23.2782 0.965779 24.2865 0.365682C24.0963 0.965779 23.8061 1.50492 23.4161 1.98312C23.0261 2.46132 22.5647 2.85982 22.032 3.17862C23.0784 3.04735 24.0677 2.77544 25 2.36287Z" fill="#233488"/>
</svg>
