<svg width="67" height="51" viewBox="0 0 67 51" fill="none" xmlns="http://www.w3.org/2000/svg">
<g opacity="0.848191">
<g opacity="0.848191">
<g opacity="0.848191">
<g opacity="0.848191">
<g opacity="0.848191">
<path opacity="0.848191" fill-rule="evenodd" clip-rule="evenodd" d="M11.3986 46.5051L12.6366 45.2629H48.8252L50.0632 46.5051H11.3986ZM15.4081 42.481H46.0614L47.2994 43.7232L14.1729 43.7204L15.4081 42.481ZM1.52576 28.1442V22.7816C4.75277 22.5939 7.80428 21.2554 10.1346 19.0076C12.464 16.7588 13.914 13.7488 14.2257 10.5204L23.8233 20.1681C21.4181 23.2964 21.4181 27.6612 23.8233 30.7895L14.2257 40.4208C13.9159 37.1895 12.4688 34.1767 10.1394 31.9269C7.81003 29.6733 4.75564 28.3329 1.52576 28.1442ZM1.52576 35.5844V29.6781C4.44397 29.8638 7.19436 31.1119 9.26195 33.1865C11.3276 35.2611 12.5714 38.0199 12.7594 40.9481H6.8731C3.92036 40.9481 1.52576 38.5463 1.52576 35.5844ZM1.52576 15.3722C1.52576 12.4094 3.92036 10.0085 6.8731 10.0085H12.7594C12.5714 12.9376 11.3276 15.6945 9.26195 17.7701C7.19436 19.8448 4.44397 21.0928 1.52576 21.2785V15.3722ZM44.5327 10.0085L36.0265 18.5447C32.9088 16.1285 28.5607 16.1285 25.444 18.5447L16.9377 10.0085H44.5327ZM59.9418 22.8124V28.176C56.6966 28.3694 53.6364 29.7666 51.3588 32.0963C49.0793 34.424 47.7444 37.5205 47.6111 40.7797L37.6826 30.8184C40.0907 27.6901 40.0907 23.3272 37.6826 20.1998L47.2448 10.5368C47.5536 13.7681 49.0007 16.78 51.331 19.0307C53.6604 21.2843 56.7148 22.6247 59.9428 22.8133L59.9418 22.8124ZM59.9418 15.3722V21.2795C57.0265 21.0899 54.278 19.8428 52.2133 17.7682C50.1476 15.6926 48.9038 12.9348 48.7187 10.0095H54.5974C56.0157 10.0095 57.3746 10.5743 58.3767 11.5799C59.3789 12.5855 59.9418 13.949 59.9418 15.3722ZM59.9418 35.5844C59.9418 37.0086 59.3789 38.3712 58.3767 39.3777C57.3746 40.3832 56.0157 40.9481 54.5974 40.9481H49.1215C49.2078 38.0565 50.3624 35.2987 52.3648 33.2154C54.3643 31.133 57.0658 29.8696 59.9428 29.6781L59.9418 35.5844ZM25.444 32.4042C28.5617 34.8204 32.9097 34.8204 36.0265 32.4042L44.5327 40.9481H16.9368L25.444 32.4042ZM29.1169 25.4711L24.9156 29.6858C23.0964 27.1724 23.0964 23.7688 24.9156 21.2583L29.1169 25.4711ZM30.7338 23.8478L26.5334 19.6321H26.5353C29.0383 17.8048 32.4302 17.8048 34.9351 19.6321L30.7338 23.8478ZM34.9351 31.3168C32.4302 33.1451 29.0383 33.1451 26.5353 31.3168L30.7367 27.1021L34.9351 31.3168ZM32.3545 25.4778L36.5549 21.2631H36.552C38.3741 23.7765 38.3741 27.1801 36.552 29.6935L32.3545 25.4778ZM66.2424 14.8968C65.8214 14.8968 65.481 15.2413 65.481 15.6637V40.7489C65.481 43.9205 63.1065 46.5032 60.1883 46.5032H53.3142L52.0637 45.2552H57.5232C61.3295 45.1426 64.3282 41.9642 64.2352 38.1441V13.718C64.2352 13.2946 63.8919 12.9511 63.4709 12.9511C63.049 12.9511 62.7085 13.2946 62.7085 13.718V38.1441C62.8034 41.1184 60.4865 43.6116 57.5242 43.7213H50.5351L49.297 42.479L54.5974 42.4819C58.3921 42.4819 61.4705 39.3931 61.4705 35.5844V15.3722C61.4705 11.5645 58.3921 8.47564 54.5974 8.47564H49.2989L55.8191 1.93419C56.1912 1.47904 56.1596 0.815084 55.7491 0.394576C55.3348 -0.024007 54.6731 -0.0605729 54.2147 0.307973L46.0614 8.47564H15.4091L7.2682 0.307973C6.81844 -0.112535 6.11453 -0.10195 5.68011 0.336841C5.24281 0.775632 5.22939 1.47904 5.65134 1.93419L12.1715 8.47564H6.8731C3.07837 8.47564 0 11.5645 0 15.3722V35.5844C0 39.3931 3.07837 42.4819 6.8731 42.4819H12.1734L10.9354 43.7213H4.97046C4.5485 43.7213 4.20614 44.0658 4.20614 44.4882C4.20614 44.9116 4.5485 45.2552 4.97046 45.2552H9.40676L8.17157 46.5032H6.69856C6.27373 46.4897 5.92082 46.8208 5.90739 47.2442C5.89205 47.6666 6.22194 48.0207 6.64294 48.0371L5.65134 49.0089C5.4231 49.2216 5.29268 49.518 5.28692 49.8307C5.28213 50.1406 5.40296 50.4427 5.62257 50.6631C5.84218 50.8844 6.14043 51.0047 6.4521 50.9999C6.76377 50.9941 7.05627 50.8623 7.2682 50.6342L9.8805 48.013H51.5976L54.2157 50.6506C54.6712 51.0682 55.3751 51.0499 55.8066 50.6082C56.2411 50.1646 56.2468 49.4574 55.8201 49.0089L54.8361 48.0207H60.1806C63.937 48.0207 67 44.749 67 40.7354V15.6637C67 15.2442 66.6615 14.9026 66.2424 14.8968Z" fill="#222D9F"/>
</g>
</g>
</g>
</g>
</g>
</svg>
