<svg width="57" height="64" viewBox="0 0 57 64" fill="none" xmlns="http://www.w3.org/2000/svg">
<path fill-rule="evenodd" clip-rule="evenodd" d="M55.9507 44.7914L48.1777 40.6904C47.6637 40.4234 47.0256 40.6204 46.7506 41.1304C46.4776 41.6454 46.6757 42.2864 47.1907 42.5584L54.9656 46.6584C55.1196 46.7384 55.2857 46.7794 55.4577 46.7794C55.8507 46.7794 56.2087 46.5634 56.3917 46.2174C56.6627 45.7014 56.4657 45.0624 55.9507 44.7914Z" fill="#222D9F"/>
<path fill-rule="evenodd" clip-rule="evenodd" d="M1.04113 18.2233L8.81813 22.3243C8.97213 22.4043 9.13813 22.4453 9.31213 22.4453C9.70413 22.4453 10.0621 22.2303 10.2451 21.8823C10.5181 21.3683 10.3191 20.7273 9.80513 20.4553L2.02713 16.3563C1.51313 16.0873 0.873134 16.2813 0.602134 16.7953C0.468134 17.0453 0.440134 17.3323 0.524134 17.6033C0.608134 17.8723 0.791134 18.0933 1.04113 18.2233Z" fill="#222D9F"/>
<path fill-rule="evenodd" clip-rule="evenodd" d="M41.2213 49.6719C40.9123 49.1809 40.2583 49.0339 39.7643 49.3409C39.5263 49.4899 39.3603 49.7239 39.2973 49.9979C39.2343 50.2749 39.2833 50.5579 39.4333 50.7969L42.2803 55.3189C42.4753 55.6279 42.8103 55.8129 43.1753 55.8129C43.3703 55.8129 43.5643 55.7569 43.7363 55.6509C43.9743 55.5019 44.1403 55.2689 44.2023 54.9939C44.2663 54.7179 44.2183 54.4339 44.0683 54.1929L41.2213 49.6719Z" fill="#222D9F"/>
<path fill-rule="evenodd" clip-rule="evenodd" d="M16.7795 13.8944C16.9745 13.8944 17.1685 13.8384 17.3405 13.7324C17.8325 13.4214 17.9815 12.7684 17.6725 12.2754L14.8245 7.75642C14.5155 7.26542 13.8635 7.11942 13.3685 7.42542C12.8765 7.73442 12.7265 8.38742 13.0365 8.88342L15.8835 13.3994C16.0765 13.7094 16.4115 13.8944 16.7795 13.8944Z" fill="#222D9F"/>
<path fill-rule="evenodd" clip-rule="evenodd" d="M41.4304 31.5505C41.4304 38.6975 35.6154 44.5125 28.4674 44.5125C21.3224 44.5125 15.5094 38.6975 15.5094 31.5505C15.5094 24.4035 21.3224 18.5885 28.4674 18.5885C35.6154 18.5885 41.4304 24.4035 41.4304 31.5505ZM28.4674 16.4785C20.1594 16.4785 13.3994 23.2395 13.3994 31.5505C13.3994 39.8625 20.1594 46.6235 28.4674 46.6235C36.7794 46.6235 43.5404 39.8625 43.5404 31.5505C43.5404 23.2395 36.7794 16.4785 28.4674 16.4785Z" fill="#222D9F"/>
<path fill-rule="evenodd" clip-rule="evenodd" d="M28.4964 10.9C29.0784 10.9 29.5514 10.427 29.5514 9.845V1.055C29.5514 0.473 29.0784 0 28.4964 0C27.9144 0 27.4404 0.473 27.4404 1.055V9.845C27.4404 10.427 27.9144 10.9 28.4964 10.9Z" fill="#222D9F"/>
<path fill-rule="evenodd" clip-rule="evenodd" d="M28.4964 52.1748C27.9144 52.1748 27.4404 52.6488 27.4404 53.2308V62.0208C27.4404 62.6028 27.9144 63.0748 28.4964 63.0748C29.0784 63.0748 29.5514 62.6028 29.5514 62.0208V53.2308C29.5514 52.6488 29.0784 52.1748 28.4964 52.1748Z" fill="#222D9F"/>
<path fill-rule="evenodd" clip-rule="evenodd" d="M39.0146 13.2509C39.1766 13.3449 39.3546 13.3929 39.5416 13.3929C39.9176 13.3929 40.2696 13.1899 40.4586 12.8649L43.1296 8.24186C43.2706 7.99786 43.3086 7.71386 43.2356 7.44086C43.1616 7.16886 42.9886 6.94086 42.7436 6.80086C42.4976 6.65786 42.2106 6.61986 41.9396 6.69486C41.6676 6.76886 41.4416 6.94286 41.3026 7.18686L38.6336 11.8089C38.4906 12.0509 38.4506 12.3329 38.5216 12.6049C38.5936 12.8789 38.7686 13.1079 39.0146 13.2509Z" fill="#222D9F"/>
<path fill-rule="evenodd" clip-rule="evenodd" d="M17.9759 49.6963C17.4739 49.4113 16.8269 49.5823 16.5369 50.0833L13.8659 54.7093C13.7249 54.9533 13.6869 55.2383 13.7599 55.5103C13.8329 55.7833 14.0079 56.0093 14.2519 56.1503C14.4129 56.2433 14.5959 56.2923 14.7789 56.2923C15.1549 56.2923 15.5059 56.0903 15.6959 55.7643L18.3669 51.1363C18.5079 50.8893 18.5439 50.6033 18.4689 50.3313C18.3949 50.0603 18.2199 49.8353 17.9759 49.6963Z" fill="#222D9F"/>
<path fill-rule="evenodd" clip-rule="evenodd" d="M47.82 21.7375L55.464 17.3945C55.967 17.1075 56.144 16.4625 55.858 15.9555C55.719 15.7105 55.494 15.5335 55.222 15.4595C54.949 15.3815 54.663 15.4205 54.418 15.5605L46.774 19.9035C46.271 20.1905 46.094 20.8365 46.38 21.3425C46.564 21.6715 46.917 21.8755 47.298 21.8755C47.479 21.8755 47.66 21.8275 47.82 21.7375Z" fill="#222D9F"/>
<path fill-rule="evenodd" clip-rule="evenodd" d="M9.06209 41.3392L1.41709 45.6831C1.17109 45.8221 0.996091 46.0502 0.921091 46.3212C0.847091 46.5932 0.884091 46.8771 1.02409 47.1211C1.20809 47.4501 1.55909 47.6542 1.94109 47.6542C2.12609 47.6542 2.30809 47.6071 2.46009 47.5171L10.1041 43.1742C10.6081 42.8872 10.7851 42.2402 10.4991 41.7352C10.2131 41.2312 9.56909 41.0522 9.06209 41.3392Z" fill="#222D9F"/>
<path fill-rule="evenodd" clip-rule="evenodd" d="M56.6852 30.9496C56.4882 30.7486 56.2232 30.6376 55.9422 30.6356L50.5902 30.5996C50.0132 30.6176 49.5402 31.0876 49.5372 31.6466C49.5342 31.9286 49.6422 32.1946 49.8402 32.3956C50.0382 32.5966 50.3022 32.7086 50.5832 32.7106L55.9342 32.7456C56.5122 32.7456 56.9852 32.2756 56.9892 31.6986C56.9922 31.4176 56.8832 31.1506 56.6852 30.9496Z" fill="#222D9F"/>
<path fill-rule="evenodd" clip-rule="evenodd" d="M6.39103 32.4107H6.39803C6.97603 32.4107 7.44903 31.9407 7.45303 31.3637C7.45503 31.0827 7.34703 30.8157 7.14903 30.6147C6.95203 30.4137 6.68703 30.3027 6.40603 30.3007L1.05503 30.2627C0.477027 30.2627 0.00402729 30.7317 2.72878e-05 31.3087C-0.00197271 31.5917 0.106027 31.8567 0.304027 32.0567C0.501027 32.2597 0.766027 32.3707 1.04703 32.3727L6.39103 32.4107Z" fill="#222D9F"/>
</svg>
