<svg width="52" height="61" viewBox="0 0 52 61" fill="none" xmlns="http://www.w3.org/2000/svg">
<g clip-path="url(#clip0)">
<path fill-rule="evenodd" clip-rule="evenodd" d="M25.5 54.4422C15.0544 54.4422 6.55394 45.9448 6.55394 35.4956C6.55394 25.0513 15.0534 16.5539 25.5 16.5539C35.9456 16.5539 44.447 25.0513 44.447 35.4995C44.447 45.9448 35.9466 54.4422 25.5 54.4422ZM25.5 15C14.1981 15 5 24.195 5 35.4995C5 46.803 14.1952 56 25.5 56C36.8048 56 46 46.803 46 35.4995C46 24.195 36.8048 15 25.5 15Z" fill="#1F329C"/>
<path fill-rule="evenodd" clip-rule="evenodd" d="M43.2361 11.181L43.7195 10.7015C43.9631 10.4614 44.2905 10.327 44.6362 10.327C44.981 10.327 45.3055 10.4614 45.5491 10.7015L49.2373 14.352C49.7419 14.8524 49.7419 15.6635 49.2373 16.163L48.7529 16.6414C48.2493 17.1409 47.4288 17.1409 46.9242 16.6414L43.2361 12.991C42.9934 12.7498 42.8576 12.4267 42.8576 12.0874C42.8576 11.7424 42.9934 11.4212 43.2361 11.181ZM49.7958 35.5915C49.7958 48.7617 38.9711 59.4749 25.6659 59.4749C12.3606 59.4749 1.53689 48.7617 1.53689 35.5915C1.53689 22.4231 12.3606 11.71 25.6659 11.71C38.9711 11.7128 49.7958 22.4259 49.7958 35.5915ZM20.1105 6.04362V2.91642C20.1105 2.2092 20.6902 1.63447 21.4047 1.63447H29.9318C30.6463 1.63447 31.226 2.2092 31.226 2.91642V6.04362C31.226 6.7518 30.6463 7.32463 29.9318 7.32463H21.4047C20.6902 7.32463 20.1105 6.7518 20.1105 6.04362ZM42.1499 14.067L43.4499 15.3547L42.4195 16.3736C38.1006 12.6812 32.5327 10.3899 26.4353 10.2107V8.84677H29.9289C31.4908 8.84677 32.761 7.58864 32.761 6.04362V2.91642C32.761 1.37045 31.4908 0.113281 29.9289 0.113281L21.4047 0.116141C19.8438 0.116141 18.5727 1.37331 18.5727 2.91928V6.04648C18.5727 7.59245 19.8438 8.85058 21.4047 8.85058H24.8984V10.2107C11.1001 10.6158 0 21.8436 0 35.5943C0 49.6024 11.5151 60.9999 25.6668 60.9999C39.8185 60.997 51.3336 49.6005 51.3336 35.5915C51.3336 28.463 48.3484 22.018 43.5558 17.3992L44.537 16.427L45.838 17.7137C46.3898 18.2617 47.1139 18.5353 47.841 18.5353C48.5651 18.5353 49.2921 18.2617 49.841 17.7137L50.3244 17.2362C51.4299 16.142 51.4299 14.3644 50.3244 13.2731L46.6363 9.62261C45.5674 8.56464 43.7022 8.56464 42.6333 9.62261L42.1499 10.1011C41.6144 10.6301 41.3207 11.3344 41.3207 12.0836C41.3207 12.8327 41.6144 13.538 42.1499 14.0661V14.067Z" fill="#1F329C"/>
<path fill-rule="evenodd" clip-rule="evenodd" d="M25 38.5118C23.6294 38.5118 22.5127 37.411 22.5127 36.06C22.5127 34.709 23.6294 33.6082 25 33.6082C26.3706 33.6082 27.4873 34.709 27.4873 36.06C27.4902 37.411 26.3734 38.5118 25 38.5118ZM25.7559 32.19V25.746C25.7559 25.3361 25.4168 25 25 25C24.5842 25 24.2441 25.3361 24.2441 25.746V32.19C22.3971 32.5401 21 34.1376 21 36.0572C21 38.2326 22.7959 40 25 40C27.207 40 29 38.2289 29 36.0572C29.0028 34.1376 27.6029 32.5401 25.7559 32.19Z" fill="#1F329C"/>
<path fill-rule="evenodd" clip-rule="evenodd" d="M25 22C25.5514 22 26 21.7057 26 21.3449V19.6551C26 19.2943 25.5514 19 25 19C24.4499 19 24 19.2943 24 19.6551V21.3449C24 21.7057 24.4499 22 25 22Z" fill="#1F329C"/>
<path fill-rule="evenodd" clip-rule="evenodd" d="M18.1353 21.3541C17.967 21.0163 17.596 20.9001 17.3042 21.0934C17.014 21.2903 16.9142 21.7212 17.0803 22.0617L17.8649 23.6462C17.9784 23.8732 18.1826 24 18.3921 24C18.4941 24 18.5985 23.9699 18.696 23.906C18.9862 23.7101 19.086 23.2782 18.9192 22.9386L18.1353 21.3541Z" fill="#1F329C"/>
<path fill-rule="evenodd" clip-rule="evenodd" d="M11.3537 28.1345L12.9374 28.9185C13.0481 28.9741 13.1696 29 13.291 29C13.5347 29 13.7749 28.8903 13.9042 28.6952C14.101 28.4057 13.9849 28.0324 13.6446 27.864L12.0609 27.0823C11.7214 26.9132 11.2899 27.013 11.094 27.3056C10.8999 27.5951 11.016 27.9684 11.3537 28.1345Z" fill="#1F329C"/>
<path fill-rule="evenodd" clip-rule="evenodd" d="M12 35.4997C12 35.2248 11.7064 35 11.3455 35H9.65446C9.2936 35 9 35.2248 9 35.4997C9 35.7752 9.2936 36 9.65446 36H11.3455C11.7064 36 12 35.7771 12 35.4997Z" fill="#1F329C"/>
<path fill-rule="evenodd" clip-rule="evenodd" d="M12.9384 42.0818L11.3539 42.8648C11.017 43.0337 10.8999 43.4035 11.0932 43.6956C11.2262 43.8904 11.4639 44 11.7077 44C11.8265 44 11.9515 43.9734 12.0615 43.9186L13.6459 43.1333C13.9837 42.9652 14.0999 42.5946 13.9066 42.3024C13.7097 42.0133 13.2753 41.9136 12.9384 42.0818Z" fill="#1F329C"/>
<path fill-rule="evenodd" clip-rule="evenodd" d="M18.6967 47.0958C18.4043 46.8989 18.0343 47.0151 17.8652 47.3557L17.0818 48.9382C16.9135 49.2762 17.0132 49.7099 17.3048 49.9069C17.4 49.9698 17.5043 50 17.6086 50C17.818 50 18.0221 49.874 18.1363 49.647L18.9198 48.0645C19.0857 47.7239 18.986 47.2928 18.6967 47.0958Z" fill="#1F329C"/>
<path fill-rule="evenodd" clip-rule="evenodd" d="M25 49C24.4499 49 24 49.2943 24 49.6551V51.3449C24 51.7057 24.4499 52 25 52C25.5514 52 26 51.7057 26 51.3449V49.6551C26 49.2911 25.5551 49 25 49Z" fill="#1F329C"/>
<path fill-rule="evenodd" clip-rule="evenodd" d="M34.1353 47.3542C33.967 47.016 33.596 46.8998 33.3035 47.0941C33.014 47.2912 32.9142 47.7225 33.0803 48.0634L33.8649 49.6468C33.9784 49.8731 34.1826 50 34.3921 50C34.4941 50 34.5985 49.9698 34.696 49.9068C34.9862 49.7098 35.086 49.2784 34.9192 48.9376L34.1353 47.3542Z" fill="#1F329C"/>
<path fill-rule="evenodd" clip-rule="evenodd" d="M39.645 42.8665L38.0625 42.082C37.7251 41.9132 37.2921 42.0136 37.0955 42.3047C36.8989 42.5944 37.0158 42.9661 37.355 43.1349L38.9375 43.9194C39.0482 43.9742 39.1695 44 39.2917 44C39.5343 44 39.7717 43.8913 39.9045 43.6967C40.1011 43.4078 39.9842 43.0353 39.645 42.8665Z" fill="#1F329C"/>
<path fill-rule="evenodd" clip-rule="evenodd" d="M39 35.4997C39 35.7752 39.2936 36 39.6545 36H41.3455C41.7064 36 42 35.7752 42 35.4997C42 35.2248 41.7064 35 41.3455 35H39.6545C39.2911 35 39 35.2248 39 35.4997Z" fill="#1F329C"/>
<path fill-rule="evenodd" clip-rule="evenodd" d="M37.0952 28.6964C37.2281 28.8912 37.4656 29 37.7084 29C37.8281 29 37.9521 28.9741 38.0629 28.9201L39.6465 28.1347C39.9833 27.9658 40.1003 27.5959 39.9062 27.3037C39.7103 27.0137 39.2761 26.9141 38.9394 27.0807L37.3548 27.8661C37.0154 28.0343 36.8993 28.4072 37.0952 28.6964Z" fill="#1F329C"/>
<path fill-rule="evenodd" clip-rule="evenodd" d="M34.6962 21.0958C34.4047 20.899 34.034 21.0151 33.8658 21.3554L33.0817 22.9392C32.9135 23.2768 33.0132 23.7102 33.3048 23.9069C33.3999 23.9699 33.505 24 33.6092 24C33.8178 24 34.0249 23.8733 34.136 23.6473L34.9193 22.0627C35.086 21.7259 34.9863 21.2916 34.6962 21.0958Z" fill="#1F329C"/>
</g>
<defs>
<clipPath id="clip0">
<rect width="52" height="61" fill="white"/>
</clipPath>
</defs>
</svg>
