<svg width="54" height="53" viewBox="0 0 54 53" fill="none" xmlns="http://www.w3.org/2000/svg">
<path fill-rule="evenodd" clip-rule="evenodd" d="M50.0766 42.6234L52.1886 40.5531V42.6234H50.0766ZM45.2953 37.84L52.1886 31.084V38.0406L47.5147 42.6216H45.2977L45.2953 37.84ZM43.4839 51.2203H1.81258V10.3719H8.7053V14.753V43.5109C8.7053 44.0026 9.1109 44.4002 9.61249 44.4002H43.4863L43.4839 51.2203ZM10.5173 6.60015L15.085 2.12261C15.1882 2.02145 15.256 1.90441 15.301 1.77561H21.5704L14.6116 8.5969H10.5167L10.5173 6.60015ZM12.8753 1.77561L10.5173 4.08701V1.77561H12.8753ZM45.2959 28.2533L52.1886 21.5955V28.5726L45.2959 35.3298V28.2533ZM43.4839 20.6786V27.5093L27.8325 42.6234H21.0964L43.4839 20.6786ZM43.4839 11.3147V18.1672L18.6616 42.4993C18.622 42.5381 18.589 42.5799 18.5584 42.6234H11.9189L43.4839 11.3147ZM10.5173 12.6104V10.3725H12.8003L10.5173 12.6104ZM22.4584 10.3725L10.5173 22.0772V15.1212L15.3616 10.3725H22.4584ZM33.9308 8.5969H26.8341L33.6146 1.94793C33.6686 1.895 33.7106 1.83501 33.7484 1.77561H40.8871L33.9308 8.5969ZM43.6759 8.5969H36.4922L43.2793 1.94323C43.3309 1.89265 43.3729 1.83501 43.4107 1.77561H50.5518L43.6759 8.5969ZM10.5167 34.0588L34.6802 10.3725H41.8849L10.5167 41.4865V34.0588ZM10.5167 24.5821C10.5305 24.5709 10.5473 24.5615 10.5611 24.548L25.0221 10.3725H32.1188L10.5167 31.548V24.5821ZM52.188 9.63497L45.2953 16.3916V9.51558L52.188 2.68076V9.63497ZM52.188 19.1035L45.2953 25.7584V18.9029L52.188 12.1469V19.1035ZM24.0915 1.77619H31.2285L24.2697 8.5969H17.173L23.9601 1.94382C24.0117 1.89324 24.0537 1.8356 24.0915 1.77619ZM43.4833 39.6174V42.6246H40.4156L43.4833 39.6174ZM37.997 42.4846C37.952 42.5281 37.9124 42.574 37.8794 42.6246H30.4125L43.4833 30.0024V37.1054L37.997 42.4846ZM53.0922 0H9.60949C9.1079 0 8.7023 0.397585 8.7023 0.889274V8.5969H0.90719C0.405595 8.5969 0 8.99448 0 9.48617V52.1107C0 52.6024 0.405595 53 0.90719 53H44.3905C44.8921 53 45.2977 52.6024 45.2977 52.1107L45.2953 44.4002H53.0928C53.5944 44.4002 54 44.0032 54 43.5115V0.886921C54 0.397585 53.5944 0 53.0928 0H53.0922Z" fill="#222D9F"/>
</svg>
